<svg width="16" height="16" viewBox="0 0 16 16" fill="none" xmlns="http://www.w3.org/2000/svg">
<path d="M14.8131 15.5202C15.0084 15.7155 15.325 15.7155 15.5202 15.5202C15.7155 15.325 15.7155 15.0084 15.5202 14.8131L14.8131 15.5202ZM12.1667 6.83334C12.1667 9.77886 9.77886 12.1667 6.83334 12.1667V13.1667C10.3311 13.1667 13.1667 10.3311 13.1667 6.83334H12.1667ZM6.83334 12.1667C3.88782 12.1667 1.5 9.77886 1.5 6.83334H0.5C0.5 10.3311 3.33553 13.1667 6.83334 13.1667V12.1667ZM1.5 6.83334C1.5 3.88782 3.88782 1.5 6.83334 1.5V0.5C3.33553 0.5 0.5 3.33553 0.5 6.83334H1.5ZM6.83334 1.5C9.77886 1.5 12.1667 3.88782 12.1667 6.83334H13.1667C13.1667 3.33553 10.3311 0.5 6.83334 0.5V1.5ZM10.6465 11.3536L14.8131 15.5202L15.5202 14.8131L11.3536 10.6465L10.6465 11.3536Z" fill="#666666"/>
</svg>
